<svg xmlns="http://www.w3.org/2000/svg" version="1.1" xmlns:xlink="http://www.w3.org/1999/xlink" xmlns:svgjs="http://svgjs.com/svgjs" width="260" height="260"><svg width="260" height="260" viewBox="0 0 260 260" fill="none" xmlns="http://www.w3.org/2000/svg">
<rect width="260" height="260" rx="50" fill="#F3BA11"></rect>
<path d="M46.8602 102.44C46.8602 109.842 42.2147 111.693 39.892 111.693C30.6011 111.692 27.9369 104.834 25.6141 90.9547C23.2914 77.0753 27.9785 64.9145 32.6239 57.9748C37.2693 51.0351 42.0445 45.9528 51.2964 42.2672C62.91 37.6407 75.8307 40.5219 83.9886 46.5401C94.4202 54.2356 104.979 70.1657 101.815 88.5474C99.2772 103.292 91.5422 110.875 81.7511 118.518L75.7702 122.129L72.7488 123.453L66.8267 125.981C73.2106 127.776 79.3241 130.161 81.7511 131.772C88.2999 136.12 90.7487 138.045 95.2449 144.878C102.639 156.116 98.9234 169.514 93.9313 176.21C87.3848 184.992 74.714 191 63.1192 190.342C48.6177 189.519 43.9777 185.563 39.3323 180.937C34.6868 176.31 33.9882 169.76 35.2466 162.584C36.0318 158.106 40.8019 150.6 49.0185 146.675L52.6925 145.078L56.3666 144.08L57.1014 145.677L53.4941 148.205C50.0873 151.465 44.142 159.182 45.0772 168.496C46.6509 184.169 58.2442 187.212 63.1192 187.324C74.1254 187.576 85.5405 180.487 85.884 162.505C86.0774 152.382 83.0131 142.899 73.4515 135.139L71.4665 133.939L68.9441 132.512L66.6577 131.536L63.8477 130.524L58.9093 129.277L53.8284 128.469V124.19L58.3212 123.246L62.584 122.129C65.2377 121.211 68.2142 120.007 73.7887 116.306C80.7569 111.68 84.1766 102.981 85.8568 98.0866C88.9315 89.1299 86.3464 70.0544 77.0555 60.8015C67.7646 51.5486 62.132 51.0538 55.1639 51.0538C46.2204 51.0538 32.5655 59.865 33.349 73.3213C34.371 90.8735 46.8602 93.1867 46.8602 102.44Z" fill="#26816F" stroke="#26816F" stroke-width="2"></path>
<path d="M122.983 83.5059C128.072 93.1865 122.12 96.5097 119.023 97.2808C111.048 98.1695 109.932 90.7984 109.932 86.172C109.932 82.4708 110.378 77.5071 114.394 67.8424L119.636 59.2331L125.939 51.0125L132.241 44.9027L139.045 40.4036C145.905 35.5712 161.602 30.2668 183.9 37.6691C206.198 45.0715 217.91 65.5618 221.064 72.3675C225.709 82.3915 235 107.685 235 131.743C235 161.815 226.608 179.076 218.741 191.887C210.002 206.117 195.981 216.467 185.827 220.388C171.602 225.881 160.704 226.8 151.224 225.444C137.731 223.515 129.915 219.124 125.832 215.788C120.754 211.637 117.289 206.314 114.617 197.282C111.945 188.25 112.546 181 112.546 177.145L113.882 166.7H115.619L116.154 176.745L117.289 183.265L119.026 189.519C124.37 202.026 128.444 208.632 142.559 216.13C153.83 222.118 168.588 220.414 179.223 216.467C187.586 211.588 197.3 208.648 209.075 180.503C218.365 158.296 218.783 130.566 217.235 119.77C216.461 108.975 212.617 86.2468 197.837 63.1146C181.578 37.6691 156.804 38.5003 151.382 39.9823C143.141 42.235 134.056 46.5496 126.218 56.5114C120.139 64.2361 118.019 74.0634 122.983 83.5059Z" fill="#26816F"></path>
<path d="M144.232 206.314L142.559 207.092L139.714 197.282L137.093 186.04L135.123 174.149L133.97 161.268L133.133 151.492L132.801 137.217V118.776L133.803 105.835L135.42 93.1705C136.982 82.7838 139.697 75.9871 141.555 72.2859C143.413 68.5848 144.957 65.9539 149.06 63.1146C154.605 59.7885 158.436 58.7155 160.294 60.5661C162.553 62.8157 159.458 69.231 155.386 76.8961L153.323 81.3396L151.984 86.3942C149.698 94.1148 148.321 102.025 146.463 111.278C143.447 126.296 141.778 152.214 142.336 171.654L144.232 206.314Z" fill="#26816F"></path>
<path d="M122.983 83.5059C128.072 93.1865 122.12 96.5097 119.023 97.2808C111.048 98.1695 109.932 90.7984 109.932 86.172C109.932 82.4708 110.378 77.5071 114.394 67.8424L119.636 59.2331L125.939 51.0125L132.241 44.9027L139.045 40.4036C145.905 35.5712 161.602 30.2668 183.9 37.6691C206.198 45.0715 217.91 65.5618 221.064 72.3675C225.709 82.3915 235 107.685 235 131.743C235 161.815 226.608 179.076 218.741 191.887C210.002 206.117 195.981 216.467 185.827 220.388C171.602 225.881 160.704 226.8 151.224 225.444C137.731 223.515 129.915 219.124 125.832 215.788C120.754 211.637 117.289 206.314 114.617 197.282C111.945 188.25 112.546 181 112.546 177.145L113.882 166.7H115.619L116.154 176.745L117.289 183.265L119.026 189.519C124.37 202.026 128.444 208.632 142.559 216.13C153.83 222.118 168.588 220.414 179.223 216.467C187.586 211.588 197.3 208.648 209.075 180.503C218.365 158.296 218.783 130.566 217.235 119.77C216.461 108.975 212.617 86.2468 197.837 63.1146C181.578 37.6691 156.804 38.5003 151.382 39.9823C143.141 42.235 134.056 46.5496 126.218 56.5114C120.139 64.2361 118.019 74.0634 122.983 83.5059Z" stroke="#26816F" stroke-width="2"></path>
<path d="M144.232 206.314L142.559 207.092L139.714 197.282L137.093 186.04L135.123 174.149L133.97 161.268L133.133 151.492L132.801 137.217V118.776L133.803 105.835L135.42 93.1705C136.982 82.7838 139.697 75.9871 141.555 72.2859C143.413 68.5848 144.957 65.9539 149.06 63.1146C154.605 59.7885 158.436 58.7155 160.294 60.5661C162.553 62.8157 159.458 69.231 155.386 76.8961L153.323 81.3396L151.984 86.3942C149.698 94.1148 148.321 102.025 146.463 111.278C143.447 126.296 141.778 152.214 142.336 171.654L144.232 206.314Z" stroke="#26816F" stroke-width="2"></path>
</svg><style>@media (prefers-color-scheme: light) { :root { filter: none; } }
@media (prefers-color-scheme: dark) { :root { filter: none; } }
</style></svg>